# xmcd
# Track frame offsets:
# 182
# 18720
# 31055
# 45320
# 61060
# 75905
# 92077
# 106717
# 124817
# 139980
# 154987
# 172980
# 187320
# 202845
# 219822
# 234162
# 249060
# 267887
#
# Disc length: 3786 seconds
# Revision: 1
# Processed by: cddbd v1.4PL0 Copyright (c) Steve Scherf et al.
# Submitted via: VisiTrax 2.9.5.180 - For more info visit www.synapsa.com
#
DISCID=da0ec812
DTITLE=Vairous Artists - Country Jukebox [CD2]
DYEAR=1998
DGENRE=Country
TTITLE0=Collin Raye - One Boy, One Girl
TTITLE1=Mark Chesnutt - It's A Little Too Late
TTITLE2=Terri Clark - Better Things To Do
TTITLE3=Daryle Singletary - Amen Kind Of Love
TTITLE4=John Berry - Change My Mind
TTITLE5=James Bonamy - I Don't Think I Will
TTITLE6=Doug Stone - Why Didn't I Think Of That
TTITLE7=Mila Mason - Dark Horse
TTITLE8=Jeff Carson - Not On Your Love
TTITLE9=Lorrie Morgan - I Didn't Know my Own Strength
TTITLE10=Little Texas - What Might Have Been
TTITLE11=Wade Hayes - On A Good Night
TTITLE12=Highway 101 - Who's Lonely Now
TTITLE13=Confedeerate Railroad - Daddy Never Was The Cadillac Kind
TTITLE14=Randy Travis - Whisper My Name
TTITLE15=Country Jukebox - Disc 2 of 2 - 16 That's As Close As I'll Get To Lovi
TTITLE15=ng You (Aaron Tippin)
TTITLE16=Country Jukebox - Disc 2 of 2 - 17 Two Sparrows In A Hurricane (Tany
TTITLE16=a Tucker)
TTITLE17=Country Jukebox - Disc 2 of 2 - 18 Jukebox In My Mind (Alabama)
EXTD=
EXTT0=
EXTT1=
EXTT2=
EXTT3=
EXTT4=
EXTT5=
EXTT6=
EXTT7=
EXTT8=
EXTT9=
EXTT10=
EXTT11=
EXTT12=
EXTT13=
EXTT14=
EXTT15=
EXTT16=
EXTT17=
PLAYORDER=
